HIERARCHY
ROOT pelvis
{
	OFFSET 0.003123 0.950419 0.012037
	CHANNELS 6 Xposition Yposition Zposition Xrotation Yrotation Zrotation
	JOINT left_hip
	{
		OFFSET 0.058189 -0.092763 -0.026001
		CHANNELS 6 Xposition Yposition Zposition Xrotation Yrotation Zrotation
		JOINT left_knee
		{
			OFFSET 0.054695 -0.378753 -0.009396
			CHANNELS 6 Xposition Yposition Zposition Xrotation Yrotation Zrotation
			JOINT left_ankle
			{
				OFFSET -0.043453 -0.403060 -0.031876
				CHANNELS 6 Xposition Yposition Zposition Xrotation Yrotation Zrotation
				JOINT left_foot
				{
					OFFSET 0.047257 -0.057997 0.118216
					CHANNELS 6 Xposition Yposition Zposition Xrotation Yrotation Zrotation
					End Site
					{
						OFFSET 0.000000 0.139900 0.000000
					}
				}
			}
		}
	}
	JOINT right_hip
	{
		OFFSET -0.063267 -0.103908 -0.021250
		CHANNELS 6 Xposition Yposition Zposition Xrotation Yrotation Zrotation
		JOINT right_knee
		{
			OFFSET -0.044210 -0.362380 -0.016824
			CHANNELS 6 Xposition Yposition Zposition Xrotation Yrotation Zrotation
			JOINT right_ankle
			{
				OFFSET 0.015417 -0.410728 -0.020192
				CHANNELS 6 Xposition Yposition Zposition Xrotation Yrotation Zrotation
				JOINT right_foot
				{
					OFFSET -0.038812 -0.058328 0.119049
					CHANNELS 6 Xposition Yposition Zposition Xrotation Yrotation Zrotation
					End Site
					{
						OFFSET 0.000000 0.138135 0.000000
					}
				}
			}
		}
	}
	JOINT spine1
	{
		OFFSET -0.002763 0.109891 -0.027618
		CHANNELS 6 Xposition Yposition Zposition Xrotation Yrotation Zrotation
		JOINT spine2
		{
			OFFSET 0.009448 0.131853 -0.005940
			CHANNELS 6 Xposition Yposition Zposition Xrotation Yrotation Zrotation
			JOINT spine3
			{
				OFFSET -0.011330 0.052235 0.028447
				CHANNELS 6 Xposition Yposition Zposition Xrotation Yrotation Zrotation
				JOINT neck
				{
					OFFSET -0.012164 0.165167 -0.031615
					CHANNELS 6 Xposition Yposition Zposition Xrotation Yrotation Zrotation
					JOINT head
					{
						OFFSET 0.024783 0.160452 0.020737
						CHANNELS 6 Xposition Yposition Zposition Xrotation Yrotation Zrotation
						JOINT jaw
						{
							OFFSET -0.015765 -0.000520 -0.005639
							CHANNELS 6 Xposition Yposition Zposition Xrotation Yrotation Zrotation
							End Site
							{
								OFFSET 0.000000 0.062538 -0.000000
							}
						}
						JOINT left_eye_smplhf
						{
							OFFSET 0.020502 0.042642 0.066147
							CHANNELS 6 Xposition Yposition Zposition Xrotation Yrotation Zrotation
							End Site
							{
								OFFSET 0.000000 0.062538 -0.000000
							}
						}
						JOINT right_eye_smplhf
						{
							OFFSET -0.042697 0.042642 0.066147
							CHANNELS 6 Xposition Yposition Zposition Xrotation Yrotation Zrotation
							End Site
							{
								OFFSET 0.000000 0.062538 -0.000000
							}
						}
					}
				}
				JOINT left_collar
				{
					OFFSET 0.046364 0.084944 -0.007220
					CHANNELS 6 Xposition Yposition Zposition Xrotation Yrotation Zrotation
					JOINT left_shoulder
					{
						OFFSET 0.119239 0.057728 -0.015461
						CHANNELS 6 Xposition Yposition Zposition Xrotation Yrotation Zrotation
						JOINT left_elbow
						{
							OFFSET 0.254123 -0.072151 -0.042459
							CHANNELS 6 Xposition Yposition Zposition Xrotation Yrotation Zrotation
							JOINT left_wrist
							{
								OFFSET 0.251987 0.023221 -0.002472
								CHANNELS 6 Xposition Yposition Zposition Xrotation Yrotation Zrotation
								JOINT left_index1
								{
									OFFSET 0.101902 -0.008688 0.019351
									CHANNELS 6 Xposition Yposition Zposition Xrotation Yrotation Zrotation
									JOINT left_index2
									{
										OFFSET 0.031949 0.002218 0.003010
										CHANNELS 6 Xposition Yposition Zposition Xrotation Yrotation Zrotation
										JOINT left_index3
										{
											OFFSET 0.022545 -0.002350 0.000055
											CHANNELS 6 Xposition Yposition Zposition Xrotation Yrotation Zrotation
											End Site
											{
												OFFSET 0.000000 0.022667 0.000000
											}
										}
									}
								}
								JOINT left_middle1
								{
									OFFSET 0.109398 -0.006328 -0.003981
									CHANNELS 6 Xposition Yposition Zposition Xrotation Yrotation Zrotation
									JOINT left_middle2
									{
										OFFSET 0.030611 0.000807 -0.004023
										CHANNELS 6 Xposition Yposition Zposition Xrotation Yrotation Zrotation
										JOINT left_middle3
										{
											OFFSET 0.023515 -0.002009 -0.004114
											CHANNELS 6 Xposition Yposition Zposition Xrotation Yrotation Zrotation
											End Site
											{
												OFFSET 0.000000 0.023957 0.000000
											}
										}
									}
								}
								JOINT left_pinky1
								{
									OFFSET 0.084047 -0.014539 -0.043750
									CHANNELS 6 Xposition Yposition Zposition Xrotation Yrotation Zrotation
									JOINT left_pinky2
									{
										OFFSET 0.015471 -0.001132 -0.011999
										CHANNELS 6 Xposition Yposition Zposition Xrotation Yrotation Zrotation
										JOINT left_pinky3
										{
											OFFSET 0.015533 -0.001665 -0.011217
											CHANNELS 6 Xposition Yposition Zposition Xrotation Yrotation Zrotation
											End Site
											{
												OFFSET 0.000000 0.019232 0.000000
											}
										}
									}
								}
								JOINT left_ring1
								{
									OFFSET 0.097444 -0.009268 -0.027345
									CHANNELS 6 Xposition Yposition Zposition Xrotation Yrotation Zrotation
									JOINT left_ring2
									{
										OFFSET 0.028047 0.001485 -0.005266
										CHANNELS 6 Xposition Yposition Zposition Xrotation Yrotation Zrotation
										JOINT left_ring3
										{
											OFFSET 0.022822 -0.001458 -0.007094
											CHANNELS 6 Xposition Yposition Zposition Xrotation Yrotation Zrotation
											End Site
											{
												OFFSET 0.000000 0.023944 0.000000
											}
										}
									}
								}
								JOINT left_thumb1
								{
									OFFSET 0.040636 -0.017977 0.025611
									CHANNELS 6 Xposition Yposition Zposition Xrotation Yrotation Zrotation
									JOINT left_thumb2
									{
										OFFSET 0.017016 0.000976 0.024978
										CHANNELS 6 Xposition Yposition Zposition Xrotation Yrotation Zrotation
										JOINT left_thumb3
										{
											OFFSET 0.020523 -0.005159 0.015523
											CHANNELS 6 Xposition Yposition Zposition Xrotation Yrotation Zrotation
											End Site
											{
												OFFSET 0.000000 0.026245 -0.000000
											}
										}
									}
								}
							}
						}
					}
				}
				JOINT right_collar
				{
					OFFSET -0.047695 0.084339 -0.013400
					CHANNELS 6 Xposition Yposition Zposition Xrotation Yrotation Zrotation
					JOINT right_shoulder
					{
						OFFSET -0.102578 0.053524 -0.012669
						CHANNELS 6 Xposition Yposition Zposition Xrotation Yrotation Zrotation
						JOINT right_elbow
						{
							OFFSET -0.271150 -0.036492 -0.026467
							CHANNELS 6 Xposition Yposition Zposition Xrotation Yrotation Zrotation
							JOINT right_wrist
							{
								OFFSET -0.249267 -0.004533 -0.015325
								CHANNELS 6 Xposition Yposition Zposition Xrotation Yrotation Zrotation
								JOINT right_index1
								{
									OFFSET -0.099880 -0.011783 0.019600
									CHANNELS 6 Xposition Yposition Zposition Xrotation Yrotation Zrotation
									JOINT right_index2
									{
										OFFSET -0.031948 0.002218 0.003011
										CHANNELS 6 Xposition Yposition Zposition Xrotation Yrotation Zrotation
										JOINT right_index3
										{
											OFFSET -0.022545 -0.002349 0.000055
											CHANNELS 6 Xposition Yposition Zposition Xrotation Yrotation Zrotation
											End Site
											{
												OFFSET 0.000000 0.022667 0.000000
											}
										}
									}
								}
								JOINT right_middle1
								{
									OFFSET -0.107376 -0.009422 -0.003734
									CHANNELS 6 Xposition Yposition Zposition Xrotation Yrotation Zrotation
									JOINT right_middle2
									{
										OFFSET -0.030611 0.000808 -0.004023
										CHANNELS 6 Xposition Yposition Zposition Xrotation Yrotation Zrotation
										JOINT right_middle3
										{
											OFFSET -0.023515 -0.002009 -0.004114
											CHANNELS 6 Xposition Yposition Zposition Xrotation Yrotation Zrotation
											End Site
											{
												OFFSET 0.000000 0.023957 0.000000
											}
										}
									}
								}
								JOINT right_pinky1
								{
									OFFSET -0.082027 -0.017634 -0.043503
									CHANNELS 6 Xposition Yposition Zposition Xrotation Yrotation Zrotation
									JOINT right_pinky2
									{
										OFFSET -0.015471 -0.001132 -0.011999
										CHANNELS 6 Xposition Yposition Zposition Xrotation Yrotation Zrotation
										JOINT right_pinky3
										{
											OFFSET -0.015533 -0.001665 -0.011216
											CHANNELS 6 Xposition Yposition Zposition Xrotation Yrotation Zrotation
											End Site
											{
												OFFSET 0.000000 0.019232 0.000000
											}
										}
									}
								}
								JOINT right_ring1
								{
									OFFSET -0.095423 -0.012362 -0.027099
									CHANNELS 6 Xposition Yposition Zposition Xrotation Yrotation Zrotation
									JOINT right_ring2
									{
										OFFSET -0.028047 0.001485 -0.005266
										CHANNELS 6 Xposition Yposition Zposition Xrotation Yrotation Zrotation
										JOINT right_ring3
										{
											OFFSET -0.022822 -0.001459 -0.007093
											CHANNELS 6 Xposition Yposition Zposition Xrotation Yrotation Zrotation
											End Site
											{
												OFFSET 0.000000 0.023943 0.000000
											}
										}
									}
								}
								JOINT right_thumb1
								{
									OFFSET -0.038613 -0.021074 0.025861
									CHANNELS 6 Xposition Yposition Zposition Xrotation Yrotation Zrotation
									JOINT right_thumb2
									{
										OFFSET -0.017015 0.000976 0.024978
										CHANNELS 6 Xposition Yposition Zposition Xrotation Yrotation Zrotation
										JOINT right_thumb3
										{
											OFFSET -0.020526 -0.005157 0.015522
											CHANNELS 6 Xposition Yposition Zposition Xrotation Yrotation Zrotation
											End Site
											{
												OFFSET 0.000000 0.026245 -0.000000
											}
										}
									}
								}
							}
						}
					}
				}
			}
		}
	}
}
MOTION
Frames: 4
Frame Time: 0.041667
0.003965 0.953015 0.013183 1.610986 -13.428320 -0.970442 0.058189 -0.092763 -0.026001 -7.251424 -2.273973 -0.154321 0.054695 -0.378753 -0.009396 16.326958 -0.856437 0.411994 -0.043453 -0.403060 -0.031876 -0.848279 7.262839 -3.816854 0.047257 -0.057997 0.118216 -2.974398 -2.352029 6.478235 -0.063267 -0.103908 -0.021250 -0.249118 2.201671 4.816401 -0.044210 -0.362380 -0.016824 10.649352 1.862315 -1.352050 0.015417 -0.410728 -0.020192 -4.239524 -7.717660 -1.441196 -0.038812 -0.058328 0.119049 -1.769073 0.621017 -4.437250 -0.002763 0.109891 -0.027618 8.358763 0.780404 0.181504 0.009448 0.131853 -0.005940 -1.100918 -0.229376 1.015536 -0.011330 0.052235 0.028447 2.240012 -0.400422 1.017682 -0.012164 0.165167 -0.031615 -13.043647 5.273231 -1.843124 0.024783 0.160452 0.020737 6.678402 1.507448 -2.786074 -0.015765 -0.000520 -0.005639 0.000000 0.000000 0.000000 0.020502 0.042642 0.066147 0.000000 0.000000 0.000000 -0.042697 0.042641 0.066147 0.000000 0.000000 0.000000 0.046364 0.084944 -0.007220 -0.476459 -3.188624 -19.762019 0.119239 0.057728 -0.015461 1.139745 -16.910035 -53.475129 0.254123 -0.072151 -0.042459 10.101958 -21.337974 5.610743 0.251987 0.023221 -0.002472 -0.774782 -3.306242 5.279302 0.101902 -0.008688 0.019351 -6.900704 4.728814 -13.752923 0.031949 0.002218 0.003010 2.576968 1.689194 -26.063654 0.022545 -0.002350 0.000055 4.884661 2.848082 -5.194256 0.109397 -0.006328 -0.003981 -9.613143 6.999895 -13.204870 0.030611 0.000808 -0.004023 4.020715 4.518261 -31.607015 0.023515 -0.002009 -0.004114 -0.337040 1.194114 -3.466351 0.084047 -0.014539 -0.043750 4.624479 1.845889 -27.046352 0.015471 -0.001131 -0.011999 17.636969 -1.286804 -8.852694 0.015533 -0.001665 -0.011217 -23.132078 2.530701 -14.548226 0.097444 -0.009267 -0.027345 -2.869329 2.364096 -16.163031 0.028047 0.001485 -0.005266 -3.418986 4.608105 -38.135753 0.022822 -0.001458 -0.007094 -6.032969 -9.128474 -6.064171 0.040636 -0.017977 0.025611 -29.244780 11.967400 -12.742867 0.017015 0.000976 0.024978 -7.805584 7.863157 5.482795 0.020523 -0.005159 0.015523 19.437006 1.094616 -29.312382 -0.047695 0.084339 -0.013400 -0.253055 3.690195 22.151405 -0.102578 0.053524 -0.012668 0.289312 17.656292 56.682691 -0.271149 -0.036492 -0.026467 11.748355 24.280785 -9.256464 -0.249267 -0.004533 -0.015325 -1.926437 2.851312 -4.643804 -0.099880 -0.011783 0.019600 -3.226671 -5.549812 28.693925 -0.031948 0.002218 0.003011 1.333081 -1.059720 28.551183 -0.022545 -0.002349 0.000055 0.630673 -4.529515 4.226691 -0.107376 -0.009422 -0.003734 -6.076676 -8.811455 32.496705 -0.030611 0.000808 -0.004023 2.577659 -4.180218 27.384889 -0.023515 -0.002009 -0.004114 -0.641922 -1.718190 3.176565 -0.082026 -0.017634 -0.043503 7.280816 0.875874 41.801482 -0.015471 -0.001132 -0.011999 16.075550 1.233657 10.159059 -0.015533 -0.001665 -0.011216 -13.040678 -4.369447 12.602009 -0.095423 -0.012362 -0.027099 -2.690971 -0.493089 32.711183 -0.028047 0.001485 -0.005266 -3.587726 -3.509996 34.376547 -0.022822 -0.001459 -0.007093 -5.200033 5.106321 6.093908 -0.038613 -0.021074 0.025861 -30.507846 -13.906626 15.293415 -0.017015 0.000976 0.024978 -7.011256 -9.104914 1.735668 -0.020526 -0.005157 0.015522 18.595359 -2.292791 14.098299 
0.004304 0.953359 0.013422 1.656706 -13.065018 -0.919917 0.058189 -0.092763 -0.026001 -6.934135 -2.023900 0.000677 0.054695 -0.378753 -0.009396 15.670665 -0.577583 0.294333 -0.043453 -0.403060 -0.031876 -0.620001 6.978109 -4.082474 0.047257 -0.057997 0.118216 -3.358638 -2.486035 6.732209 -0.063267 -0.103908 -0.021250 0.623769 2.028665 4.678544 -0.044210 -0.362380 -0.016824 8.731452 1.953853 -1.416972 0.015417 -0.410728 -0.020192 -3.782674 -7.509178 -0.875787 -0.038812 -0.058328 0.119049 -2.421389 1.137592 -4.528488 -0.002763 0.109891 -0.027618 8.260613 0.855002 0.124670 0.009448 0.131853 -0.005940 -0.851318 -0.101096 0.806752 -0.011330 0.052235 0.028447 2.226113 -0.339961 0.946789 -0.012164 0.165167 -0.031615 -12.825094 5.157809 -2.007724 0.024783 0.160452 0.020737 5.965388 1.510815 -3.212077 -0.015765 -0.000520 -0.005639 -0.000000 0.000000 0.000000 0.020502 0.042642 0.066147 -0.000000 0.000000 0.000000 -0.042697 0.042642 0.066147 -0.000000 0.000000 0.000000 0.046364 0.084944 -0.007221 -0.463332 -3.272702 -19.763777 0.119239 0.057728 -0.015461 1.249787 -16.837014 -53.076953 0.254123 -0.072151 -0.042459 9.992230 -21.250928 5.185271 0.251987 0.023221 -0.002472 -0.312943 -3.540772 5.186227 0.101902 -0.008688 0.019351 -5.125425 2.987223 -13.911127 0.031949 0.002218 0.003010 2.946261 1.329346 -25.356073 0.022545 -0.002350 0.000055 3.151066 2.856074 -6.761401 0.109397 -0.006327 -0.003981 -8.154191 4.866536 -15.199877 0.030611 0.000808 -0.004023 3.430329 3.811852 -30.469344 0.023515 -0.002009 -0.004114 0.007287 1.161210 -3.326049 0.084047 -0.014539 -0.043750 6.866077 -2.362076 -29.409702 0.015470 -0.001132 -0.011999 17.325268 -2.748119 -8.779652 0.015533 -0.001665 -0.011217 -19.360134 2.566172 -11.643789 0.097444 -0.009268 -0.027345 -2.075797 -0.376915 -18.470908 0.028047 0.001485 -0.005266 -3.885297 4.145700 -36.852006 0.022822 -0.001458 -0.007094 -5.631406 -8.822395 -5.891154 0.040636 -0.017977 0.025611 -26.610560 10.911728 -14.080037 0.017016 0.000976 0.024978 -7.648324 7.077570 2.836672 0.020523 -0.005159 0.015523 17.606740 4.415167 -24.230926 -0.047695 0.084339 -0.013400 -0.279578 4.128017 22.484785 -0.102578 0.053525 -0.012669 0.258422 17.893603 56.513371 -0.271149 -0.036492 -0.026467 11.147238 23.922116 -8.539837 -0.249267 -0.004532 -0.015325 -1.862645 3.003892 -4.457029 -0.099881 -0.011783 0.019600 -3.388583 -0.421849 27.738093 -0.031948 0.002218 0.003011 1.474933 -0.530665 27.356173 -0.022545 -0.002349 0.000055 0.679216 -5.063607 2.374807 -0.107376 -0.009422 -0.003734 -5.842046 -3.202954 30.211436 -0.030611 0.000808 -0.004023 1.918943 -3.404053 25.997898 -0.023515 -0.002009 -0.004114 -0.145046 -1.974891 4.475582 -0.082027 -0.017634 -0.043503 6.625736 6.735812 34.490191 -0.015471 -0.001132 -0.011999 15.564888 2.720056 8.570591 -0.015533 -0.001665 -0.011216 -12.375015 -3.945611 13.751535 -0.095423 -0.012362 -0.027099 -2.211764 4.364783 29.589319 -0.028046 0.001485 -0.005266 -4.200136 -2.277669 32.908780 -0.022822 -0.001459 -0.007093 -5.162601 5.254538 6.276888 -0.038613 -0.021074 0.025861 -31.770618 -11.960800 16.205737 -0.017015 0.000976 0.024978 -7.685512 -9.092899 2.731853 -0.020526 -0.005157 0.015522 17.964793 0.829400 9.303466 
0.004887 0.953695 0.014005 1.729123 -12.721193 -0.892706 0.058189 -0.092763 -0.026001 -6.340293 -1.812079 0.023098 0.054695 -0.378753 -0.009396 14.548827 -0.459682 0.349486 -0.043453 -0.403060 -0.031876 -0.597832 6.816628 -4.142534 0.047257 -0.057997 0.118216 -3.652278 -2.433235 6.969323 -0.063267 -0.103908 -0.021250 1.216494 1.877979 4.584857 -0.044210 -0.362380 -0.016824 7.348115 2.042833 -1.440292 0.015417 -0.410728 -0.020192 -3.355552 -7.345140 -0.439442 -0.038812 -0.058328 0.119049 -2.792577 1.377297 -4.720773 -0.002763 0.109891 -0.027618 7.981979 0.859002 0.157295 0.009448 0.131853 -0.005940 -0.617536 -0.000720 0.704225 -0.011330 0.052235 0.028447 2.161390 -0.278418 0.919622 -0.012164 0.165167 -0.031615 -12.265869 5.018609 -2.067894 0.024784 0.160452 0.020737 6.050649 1.558558 -3.150722 -0.015765 -0.000520 -0.005639 -0.000000 0.000000 -0.000000 0.020502 0.042642 0.066147 -0.000000 0.000000 -0.000001 -0.042697 0.042642 0.066147 -0.000000 0.000000 -0.000001 0.046364 0.084944 -0.007220 -0.513059 -3.473161 -20.004449 0.119239 0.057728 -0.015461 1.275563 -16.765562 -52.816548 0.254123 -0.072150 -0.042459 9.881592 -21.406769 5.416181 0.251987 0.023221 -0.002472 -0.434617 -3.641951 5.098332 0.101902 -0.008688 0.019351 -4.947703 2.352462 -13.338057 0.031949 0.002218 0.003010 2.840005 1.230652 -25.611445 0.022545 -0.002350 0.000055 4.010900 2.512548 -6.333399 0.109398 -0.006328 -0.003981 -8.114877 3.975315 -14.383969 0.030611 0.000807 -0.004023 3.420776 3.629418 -30.719776 0.023515 -0.002009 -0.004114 0.051608 1.087584 -3.595387 0.084047 -0.014539 -0.043750 6.060901 -2.655105 -27.717157 0.015471 -0.001131 -0.011999 17.418657 -2.989250 -8.953512 0.015534 -0.001665 -0.011217 -20.104672 1.913193 -12.415885 0.097444 -0.009268 -0.027345 -2.312736 -0.888233 -17.353060 0.028047 0.001486 -0.005266 -3.898292 3.832037 -37.318077 0.022822 -0.001458 -0.007094 -5.729471 -9.007019 -6.092859 0.040636 -0.017977 0.025611 -26.720641 10.794978 -14.100873 0.017015 0.000976 0.024978 -7.756126 6.548667 3.126630 0.020523 -0.005159 0.015523 17.663778 3.355345 -24.248439 -0.047695 0.084339 -0.013400 -0.311225 4.269086 22.726882 -0.102578 0.053525 -0.012669 0.334503 17.807198 56.295078 -0.271149 -0.036493 -0.026467 11.267755 24.230584 -8.894902 -0.249268 -0.004532 -0.015325 -1.882194 3.118949 -4.418864 -0.099881 -0.011783 0.019600 -3.483077 -0.569513 26.646202 -0.031948 0.002218 0.003011 1.600895 -0.427479 27.227682 -0.022545 -0.002349 0.000055 0.926513 -5.170438 2.663899 -0.107376 -0.009422 -0.003734 -6.207045 -3.159976 28.695121 -0.030611 0.000807 -0.004023 2.027544 -3.470490 26.196362 -0.023515 -0.002009 -0.004114 -0.133913 -1.988425 4.567942 -0.082027 -0.017634 -0.043503 6.175036 6.530642 32.749753 -0.015471 -0.001132 -0.011999 16.054448 2.598362 8.583944 -0.015533 -0.001665 -0.011216 -13.208304 -4.063633 14.852209 -0.095423 -0.012362 -0.027099 -2.274795 4.166775 27.945705 -0.028046 0.001485 -0.005266 -4.285272 -2.331085 33.397579 -0.022822 -0.001459 -0.007093 -5.395093 5.366402 6.446197 -0.038613 -0.021074 0.025861 -31.693553 -12.254689 15.864904 -0.017015 0.000976 0.024978 -7.778170 -9.112061 2.311384 -0.020526 -0.005157 0.015522 18.040659 1.530840 9.654687 
0.006534 0.953856 0.015031 1.790051 -12.355922 -0.887818 0.058189 -0.092763 -0.026001 -5.803925 -1.682943 -0.095415 0.054695 -0.378753 -0.009396 13.545819 -0.433299 0.422827 -0.043453 -0.403060 -0.031876 -0.562289 6.678898 -4.126908 0.047257 -0.057997 0.118216 -3.868407 -2.353023 7.108232 -0.063267 -0.103908 -0.021250 1.664696 1.739405 4.485984 -0.044210 -0.362380 -0.016824 6.356245 2.052988 -1.487720 0.015417 -0.410728 -0.020192 -3.057647 -7.209619 -0.221953 -0.038812 -0.058328 0.119049 -2.927409 1.407523 -4.895941 -0.002763 0.109890 -0.027618 7.645330 0.900575 0.260719 0.009448 0.131853 -0.005940 -0.474628 0.083404 0.689770 -0.011330 0.052235 0.028447 2.057871 -0.185078 0.931846 -0.012164 0.165167 -0.031615 -11.699833 4.799031 -2.034536 0.024783 0.160452 0.020737 6.092722 1.490065 -2.881921 -0.015765 -0.000520 -0.005639 0.000000 -0.000000 0.000000 0.020502 0.042642 0.066147 0.000000 -0.000000 -0.000000 -0.042697 0.042642 0.066147 0.000000 -0.000000 -0.000000 0.046364 0.084944 -0.007220 -0.596071 -3.002403 -20.503263 0.119239 0.057728 -0.015461 1.664698 -15.526453 -51.025519 0.254123 -0.072151 -0.042459 8.588012 -21.143399 5.839375 0.251987 0.023221 -0.002472 -0.657551 -3.648968 4.650756 0.101902 -0.008688 0.019351 -4.967035 3.517982 -15.630572 0.031949 0.002218 0.003010 2.881872 1.423745 -24.191813 0.022545 -0.002350 0.000055 2.362482 3.545125 -4.625371 0.109398 -0.006327 -0.003981 -6.731086 5.461575 -16.729867 0.030611 0.000807 -0.004023 3.043846 4.045553 -27.832256 0.023515 -0.002009 -0.004114 -0.222428 1.316070 -2.219143 0.084047 -0.014539 -0.043750 8.214940 -2.099869 -30.206942 0.015470 -0.001132 -0.011999 16.539004 -2.016052 -7.603467 0.015534 -0.001665 -0.011217 -16.604166 3.599705 -7.873169 0.097444 -0.009268 -0.027345 -1.054890 -0.153956 -20.129804 0.028047 0.001485 -0.005266 -3.823428 3.822536 -34.398807 0.022822 -0.001458 -0.007094 -5.593259 -7.652626 -4.301322 0.040636 -0.017977 0.025611 -28.239591 10.996377 -13.782885 0.017015 0.000976 0.024978 -7.777346 7.074950 2.633321 0.020523 -0.005160 0.015523 17.192976 3.137694 -22.513338 -0.047695 0.084339 -0.013400 -0.407328 4.103977 23.423360 -0.102578 0.053525 -0.012669 0.613796 17.237149 55.195011 -0.271150 -0.036492 -0.026467 10.826233 24.464213 -9.351163 -0.249267 -0.004533 -0.015325 -1.701114 2.996973 -3.815946 -0.099880 -0.011783 0.019600 -2.303168 -6.156187 30.676797 -0.031948 0.002218 0.003011 0.712732 -1.514375 27.857755 -0.022545 -0.002349 0.000055 -0.337015 -5.514241 3.376350 -0.107376 -0.009422 -0.003734 -5.127065 -8.705676 35.384751 -0.030611 0.000808 -0.004023 1.721498 -5.519442 23.235603 -0.023515 -0.002009 -0.004114 -0.698772 -2.130440 3.824000 -0.082026 -0.017634 -0.043503 6.144441 2.827299 40.319904 -0.015471 -0.001132 -0.011999 13.602551 1.337335 8.603416 -0.015533 -0.001665 -0.011216 -13.902369 -4.262187 14.867374 -0.095423 -0.012362 -0.027099 -2.222192 0.070300 33.968552 -0.028047 0.001485 -0.005266 -4.146502 -3.315708 31.063704 -0.022822 -0.001459 -0.007093 -5.075127 4.653579 6.997148 -0.038613 -0.021074 0.025861 -32.519490 -14.088986 15.437638 -0.017015 0.000976 0.024978 -7.856833 -10.573118 3.927033 -0.020525 -0.005157 0.015522 16.535869 -2.442792 12.746184 
